<svg aria-hidden="true" style="position: absolute; width: 0; height: 0; overflow: hidden;" version="1.1" xmlns="http://www.w3.org/2000/svg" xmlns:xlink="http://www.w3.org/1999/xlink">
<defs>
<symbol id="inst" viewBox="0 0 32 32">
<path fill="#666" style="fill: var(--color1, #666)" d="M15.968 0.125c2.667 0 4.845 0.031 6.532 0.093 1.437 0.063 2.719 0.313 3.844 0.751 1.082 0.416 2.020 1.020 2.812 1.811 0.776 0.778 1.392 1.715 1.794 2.759l0.018 0.054c0.437 1.124 0.687 2.406 0.75 3.843 0.063 1.688 0.093 3.865 0.093 6.531 0 2.667-0.031 4.845-0.093 6.532-0.063 1.437-0.313 2.719-0.751 3.844-0.421 1.097-1.037 2.034-1.812 2.812l0-0c-0.778 0.775-1.714 1.391-2.757 1.794l-0.055 0.019c-1.126 0.437-2.407 0.687-3.844 0.75-1.688 0.063-3.865 0.093-6.532 0.093-2.666 0-4.842-0.031-6.531-0.093-1.437-0.063-2.719-0.313-3.843-0.751-1.098-0.421-2.035-1.036-2.813-1.812l0 0c-0.775-0.778-1.391-1.714-1.794-2.757l-0.019-0.055c-0.437-1.126-0.687-2.407-0.75-3.844-0.060-1.754-0.094-3.815-0.094-5.884 0-0.228 0-0.456 0.001-0.684l-0 0.035c0-2.666 0.031-4.842 0.093-6.531 0.063-1.437 0.313-2.719 0.751-3.843 0.416-1.085 1.020-2.022 1.811-2.813 0.778-0.776 1.715-1.392 2.759-1.794l0.054-0.018c1.124-0.437 2.406-0.687 3.843-0.75 1.688-0.063 3.865-0.093 6.531-0.093zM15.968 2.187c-2.77 0-5.031 0.032-6.78 0.095-1.13 0.033-2.2 0.247-3.196 0.615l0.069-0.022c-1.5 0.626-2.561 1.688-3.186 3.187-0.346 0.926-0.561 1.996-0.594 3.112l-0 0.015c-0.061 1.832-0.096 3.985-0.096 6.147 0 0.223 0 0.445 0.001 0.668l-0-0.035c0 2.771 0.032 5.032 0.095 6.783 0.033 1.13 0.247 2.199 0.615 3.194l-0.022-0.069c0.626 1.5 1.688 2.561 3.187 3.186 0.926 0.346 1.996 0.561 3.112 0.594l0.015 0c1.749 0.063 4.010 0.095 6.78 0.095 2.771 0 5.032-0.032 6.783-0.095 1.13-0.033 2.199-0.247 3.194-0.615l-0.070 0.023c1.5-0.626 2.561-1.688 3.186-3.187 0.346-0.926 0.561-1.995 0.594-3.11l0-0.015c0.063-1.75 0.095-4.011 0.095-6.783 0-2.77-0.032-5.031-0.095-6.78-0.033-1.13-0.247-2.2-0.615-3.196l0.023 0.069c-0.626-1.5-1.688-2.561-3.187-3.186-0.926-0.346-1.995-0.561-3.11-0.594l-0.015-0c-1.832-0.061-3.985-0.096-6.147-0.096-0.223 0-0.447 0-0.67 0.001l0.034-0zM15.968 22.312c1.75 0 3.246-0.619 4.486-1.859 1.238-1.24 1.859-2.735 1.859-4.486 0-1.749-0.619-3.245-1.859-4.484-1.24-1.238-2.735-1.859-4.486-1.859-1.749 0-3.245 0.619-4.484 1.859-1.238 1.24-1.859 2.735-1.859 4.484 0 1.75 0.619 3.246 1.859 4.486 1.24 1.238 2.735 1.859 4.484 1.859zM15.968 7.843c2.251 0 4.167 0.793 5.75 2.376s2.375 3.499 2.375 5.749c0 2.251-0.792 4.167-2.375 5.75s-3.499 2.375-5.75 2.375c-2.25 0-4.166-0.792-5.749-2.375s-2.375-3.499-2.375-5.75c0-2.25 0.792-4.166 2.375-5.749s3.499-2.375 5.749-2.375zM26.344 7.531c0 0.52-0.188 0.964-0.563 1.329s-0.833 0.547-1.375 0.547c-0.010 0-0.021 0-0.033 0-0.508 0-0.967-0.209-1.296-0.547l-0-0c-0.338-0.329-0.547-0.788-0.547-1.296 0-0.011 0-0.023 0-0.034l-0 0.002c0-0.543 0.182-1 0.547-1.375 0.365-0.376 0.807-0.562 1.329-0.562 0.52 0 0.974 0.192 1.359 0.577s0.579 0.839 0.579 1.359z"></path>
</symbol>
<symbol id="fcbk" viewBox="0 0 17 32">
<path fill="none" stroke="#666" style="stroke: var(--color1, #666)" stroke-linejoin="round" stroke-linecap="round" stroke-miterlimit="4" stroke-width="1.2138" d="M15.448 0.828h-3.862c-1.707 0-3.343 0.783-4.552 2.178-1.207 1.395-1.885 3.288-1.885 5.26v4.463h-3.862v5.951h3.862v11.902h5.149v-11.902h3.862l1.288-5.951h-5.15v-4.465c0-0.395 0.136-0.772 0.377-1.052s0.569-0.436 0.91-0.436h3.862v-5.95z"></path>
</symbol>
<symbol id="arrw" viewBox="0 0 32 32">
<path d="M19.414 27.414l10-10c0.781-0.781 0.781-2.047 0-2.828l-10-10c-0.781-0.781-2.047-0.781-2.828 0s-0.781 2.047 0 2.828l6.586 6.586h-19.172c-1.105 0-2 0.895-2 2s0.895 2 2 2h19.172l-6.586 6.586c-0.39 0.39-0.586 0.902-0.586 1.414s0.195 1.024 0.586 1.414c0.781 0.781 2.047 0.781 2.828 0z"></path>
</symbol>
<symbol id="vk" viewBox="0 0 32 32">
<path d="M29 0h-26c-1.65 0-3 1.35-3 3v26c0 1.65 1.35 3 3 3h26c1.65 0 3-1.35 3-3v-26c0-1.65-1.35-3-3-3zM25.919 22.4l-2.925 0.044c0 0-0.631 0.125-1.456-0.444-1.094-0.75-2.125-2.706-2.931-2.45-0.813 0.256-0.788 2.012-0.788 2.012s0.006 0.375-0.181 0.575c-0.2 0.219-0.6 0.262-0.6 0.262h-1.306c0 0-2.888 0.175-5.431-2.475-2.775-2.887-5.225-8.619-5.225-8.619s-0.144-0.375 0.013-0.556c0.175-0.206 0.644-0.219 0.644-0.219l3.131-0.019c0 0 0.294 0.050 0.506 0.206 0.175 0.125 0.269 0.369 0.269 0.369s0.506 1.281 1.175 2.438c1.306 2.256 1.919 2.75 2.362 2.513 0.644-0.35 0.45-3.194 0.45-3.194s0.012-1.031-0.325-1.488c-0.262-0.356-0.756-0.463-0.969-0.488-0.175-0.025 0.113-0.431 0.488-0.619 0.563-0.275 1.556-0.294 2.731-0.281 0.913 0.006 1.181 0.069 1.538 0.15 1.081 0.262 0.712 1.269 0.712 3.681 0 0.775-0.137 1.863 0.419 2.219 0.238 0.156 0.825 0.025 2.294-2.469 0.694-1.181 1.219-2.569 1.219-2.569s0.113-0.25 0.288-0.356c0.181-0.106 0.425-0.075 0.425-0.075l3.294-0.019c0 0 0.988-0.119 1.15 0.331 0.169 0.469-0.369 1.563-1.712 3.356-2.206 2.944-2.456 2.669-0.619 4.369 1.75 1.625 2.113 2.419 2.175 2.519 0.712 1.2-0.813 1.294-0.813 1.294z"></path>
</symbol>
</defs>
</svg>
